<?xml version="1.0" standalone="no"?>
<!DOCTYPE svg PUBLIC "-//W3C//DTD SVG 20010904//EN"
 "http://www.w3.org/TR/2001/REC-SVG-20010904/DTD/svg10.dtd">
<svg version="1.0" xmlns="http://www.w3.org/2000/svg"
 width="640.000000pt" height="480.000000pt" viewBox="0 0 640.000000 480.000000"
 preserveAspectRatio="xMidYMid meet">
<metadata>
Created by potrace 1.16, written by Peter Selinger 2001-2019
</metadata>
<g transform="translate(0.000000,480.000000) scale(0.100000,-0.100000)"
fill="#000000" stroke="none">
<path d="M0 2400 l0 -2400 3200 0 3200 0 0 2400 0 2400 -3200 0 -3200 0 0
-2400z m2780 1141 c-68 -243 -197 -453 -390 -634 -80 -75 -102 -84 -40 -16 40
44 40 60 1 39 -12 -6 -21 -8 -21 -6 0 9 51 56 60 56 12 0 25 43 13 47 -5 2 -7
72 -5 168 4 146 2 165 -12 165 -13 0 -16 11 -16 49 0 28 -4 52 -8 55 -4 2 -9
18 -10 34 -2 28 0 30 55 41 32 6 110 24 173 41 63 16 138 29 167 29 l52 1 -19
-69z m127 22 c92 -46 176 -160 188 -259 14 -109 41 -639 34 -645 -5 -3 -66
-15 -136 -28 -71 -13 -143 -27 -160 -31 -18 -5 -33 -5 -33 0 0 4 18 10 40 14
38 6 57 26 25 26 -20 0 -19 19 2 42 15 17 15 18 -2 18 -14 0 -16 5 -10 23 7
20 19 193 17 262 -3 164 -6 217 -13 200 -5 -12 -6 -3 -2 21 3 26 1 44 -6 48
-6 4 -12 40 -13 84 -1 65 -2 71 -8 37 -5 -25 -5 -15 -2 25 3 36 6 82 6 102 0
21 3 33 7 27 3 -6 10 -10 15 -9 5 1 12 -9 15 -22 5 -22 5 -22 11 4 3 15 1 25
-3 22 -5 -3 -9 2 -9 10 0 9 -9 16 -20 16 -11 0 -20 4 -20 9 0 5 10 7 23 5 l22
-5 -22 10 c-13 6 -23 13 -23 16 0 11 23 4 77 -22z m272 -1039 c27 -34 26 -55
-2 -86 -19 -21 -46 -29 -167 -52 -80 -15 -165 -31 -190 -36 -25 -6 -58 -12
-75 -14 -16 -2 -37 -6 -45 -9 -13 -5 -101 -22 -218 -42 -18 -3 -60 -12 -93
-20 -34 -7 -67 -11 -74 -9 -7 3 -16 1 -20 -5 -3 -6 -11 -11 -17 -11 -6 0 -5 6
3 16 7 8 20 13 30 11 9 -3 46 3 81 13 l63 17 -56 7 -57 7 8 35 c4 19 4 37 -1
40 -5 3 -36 -4 -70 -16 -33 -12 -63 -19 -66 -16 -4 3 1 6 11 6 10 0 14 5 10
12 -4 6 -3 8 3 5 6 -4 33 0 59 8 53 16 374 78 412 79 12 1 22 4 22 7 0 4 30
12 68 18 37 6 117 21 177 35 150 33 178 33 204 0z m-234 -254 c14 -5 24 -14
20 -19 -3 -5 0 -13 6 -17 8 -4 9 -3 5 4 -4 7 -3 12 3 12 6 0 22 -20 36 -43 55
-96 9 -219 -91 -243 -27 -6 -27 -5 -11 8 19 14 23 38 28 203 2 76 1 81 -22 92
-29 15 -11 17 26 3z m-649 -150 c33 -21 74 -90 74 -126 0 -68 -47 -144 -101
-163 -25 -8 -29 -8 -22 2 6 6 13 22 16 35 4 17 2 22 -8 18 -11 -4 -12 0 -4 22
6 15 12 62 14 104 3 65 1 80 -13 88 -13 8 -11 9 11 4 15 -3 27 -4 27 0 0 3
-12 12 -27 20 -16 8 -22 15 -14 16 7 0 28 -9 47 -20z m544 -620 l28 -20 6 25
c5 21 12 25 46 25 22 0 40 -2 40 -5 0 -12 -70 -287 -75 -296 -9 -14 -65 -11
-71 5 -5 12 -10 12 -39 0 -78 -32 -192 -3 -222 56 -15 30 -17 79 -3 115 15 41
71 94 115 111 51 18 138 11 175 -16z m320 11 c0 -18 1 -18 37 0 21 10 50 19
65 19 22 0 28 -5 28 -22 0 -34 -11 -44 -48 -46 -46 -3 -89 -27 -98 -54 -4 -13
-17 -59 -28 -103 l-21 -80 -43 -3 c-38 -3 -43 -1 -38 15 3 10 12 47 21 83 13
55 38 151 51 198 2 6 19 12 39 12 28 0 35 -4 35 -19z"/>
<path d="M2714 1469 c-59 -14 -97 -57 -97 -110 0 -55 29 -78 96 -79 59 0 102
21 122 60 29 57 15 101 -42 125 -19 8 -36 15 -37 14 0 -1 -19 -5 -42 -10z"/>
</g>
</svg>
